<svg width="42" height="54" viewBox="0 0 42 54" fill="none" xmlns="http://www.w3.org/2000/svg">
<path d="M21 0.75C15.5319 0.756451 10.2896 2.93151 6.42306 6.79805C2.55652 10.6646 0.381464 15.9069 0.375013 21.375C0.369985 25.8433 1.82946 30.1901 4.53001 33.75C4.53001 33.75 5.09251 34.4906 5.18439 34.5975L21 53.25L36.8231 34.5881C36.9056 34.4888 37.47 33.75 37.47 33.75L37.4719 33.7444C40.1706 30.1858 41.6294 25.8412 41.625 21.375C41.6186 15.9069 39.4435 10.6646 35.577 6.79805C31.7104 2.93151 26.4681 0.756451 21 0.75ZM21 28.875C19.5167 28.875 18.0666 28.4351 16.8332 27.611C15.5999 26.7869 14.6386 25.6156 14.0709 24.2451C13.5033 22.8747 13.3547 21.3667 13.6441 19.9118C13.9335 18.457 14.6478 17.1206 15.6967 16.0717C16.7456 15.0228 18.082 14.3085 19.5368 14.0191C20.9917 13.7297 22.4997 13.8782 23.8701 14.4459C25.2406 15.0136 26.4119 15.9749 27.236 17.2082C28.0601 18.4416 28.5 19.8916 28.5 21.375C28.4975 23.3634 27.7066 25.2696 26.3006 26.6756C24.8946 28.0815 22.9884 28.8725 21 28.875Z" fill="#4690B5" fill-opacity="0.5"/>
</svg>
