<svg width="16" height="16" viewBox="0 0 16 16" fill="none" xmlns="http://www.w3.org/2000/svg">
<mask id="mask0_2469_7598" style="mask-type:alpha" maskUnits="userSpaceOnUse" x="0" y="0" width="16" height="16">
<rect width="16" height="16" fill="#D9D9D9"/>
</mask>
<g mask="url(#mask0_2469_7598)">
<path d="M4 12.9998V3.74342C4 3.43659 4.10278 3.18039 4.30833 2.97484C4.51389 2.76928 4.77008 2.6665 5.07692 2.6665H10.9231C11.2299 2.6665 11.4861 2.76928 11.6917 2.97484C11.8972 3.18039 12 3.43659 12 3.74342V12.9998L8 11.2819L4 12.9998ZM4.66667 11.9665L8 10.5332L11.3333 11.9665V3.74342C11.3333 3.64086 11.2906 3.54685 11.2051 3.46137C11.1197 3.3759 11.0256 3.33317 10.9231 3.33317H5.07692C4.97436 3.33317 4.88034 3.3759 4.79487 3.46137C4.7094 3.54685 4.66667 3.64086 4.66667 3.74342V11.9665Z" fill="#303030"/>
</g>
</svg>
