<svg width="20" height="20" viewBox="0 0 20 20" fill="none" xmlns="http://www.w3.org/2000/svg">
<g clip-path="url(#clip0_2461_5812)">
<path d="M16.4832 0.810791H3.58089C1.97759 0.810791 0.677856 2.11052 0.677856 3.71382V16.6162C0.677856 18.2195 1.97759 19.5192 3.58089 19.5192H16.4832C18.0865 19.5192 19.3863 18.2195 19.3863 16.6162V3.71382C19.3863 2.11052 18.0865 0.810791 16.4832 0.810791Z" stroke="#FF0404"/>
<path d="M10.0319 8.87481C11.457 8.87481 12.6124 7.7195 12.6124 6.29434C12.6124 4.86918 11.457 3.71387 10.0319 3.71387C8.60673 3.71387 7.45142 4.86918 7.45142 6.29434C7.45142 7.7195 8.60673 8.87481 10.0319 8.87481Z" stroke="#F40000"/>
<path opacity="0.5" d="M12.2897 11.1555C11.6255 10.936 10.8543 10.8103 10.0318 10.8103C7.5378 10.8103 5.51599 11.9656 5.51599 13.3908C5.51599 14.8159 5.51599 15.9713 10.0318 15.9713C10.258 15.9713 10.4728 15.9684 10.6769 15.9627" stroke="#FF0000" stroke-linecap="round"/>
<path d="M15.1608 13.4229L12.6449 15.9388" stroke="#F40000" stroke-width="1.59667" stroke-linecap="round"/>
<path d="M13.9025 16.6163C14.9714 16.6163 15.8379 15.7498 15.8379 14.681C15.8379 13.6121 14.9714 12.7456 13.9025 12.7456C12.8336 12.7456 11.9672 13.6121 11.9672 14.681C11.9672 15.7498 12.8336 16.6163 13.9025 16.6163Z" stroke="#F40000"/>
</g>
<defs>
<clipPath id="clip0_2461_5812">
<rect width="20" height="20" fill="white"/>
</clipPath>
</defs>
</svg>
