<svg width="31" height="30" viewBox="0 0 31 30" fill="none" xmlns="http://www.w3.org/2000/svg">
<circle cx="15.5" cy="15" r="15" fill="#478FB5"/>
<circle cx="15.5" cy="15" r="15" fill="#468FB5"/>
<path fill-rule="evenodd" clip-rule="evenodd" d="M13.926 20.875H17.0739C19.2846 20.875 20.3903 20.875 21.1843 20.3544C21.5269 20.1298 21.822 19.8401 22.0528 19.5016C22.5833 18.7224 22.5833 17.6365 22.5833 15.4662C22.5833 13.2952 22.5833 12.21 22.0528 11.4308C21.822 11.0923 21.527 10.8025 21.1843 10.578C20.6743 10.2429 20.0354 10.1232 19.0572 10.0807C18.5904 10.0807 18.1888 9.73366 18.0974 9.28387C18.0276 8.9544 17.8462 8.65914 17.5838 8.448C17.3214 8.23685 16.9942 8.12277 16.6574 8.12503H14.3425C13.6427 8.12503 13.0399 8.61024 12.9025 9.28387C12.8111 9.73366 12.4095 10.0807 11.9427 10.0807C10.9652 10.1232 10.3263 10.2437 9.81558 10.578C9.47319 10.8026 9.17835 11.0924 8.94788 11.4308C8.41663 12.21 8.41663 13.2952 8.41663 15.4662C8.41663 17.6365 8.41663 18.7217 8.94717 19.5016C9.17667 19.8387 9.47133 20.1284 9.81558 20.3544C10.6096 20.875 11.7153 20.875 13.926 20.875ZM15.5 12.5684C13.8701 12.5684 12.5483 13.8654 12.5483 15.4655C12.5483 17.0663 13.8701 18.364 15.5 18.364C17.1298 18.364 18.4516 17.0663 18.4516 15.4662C18.4516 13.8654 17.1298 12.5684 15.5 12.5684ZM15.5 13.7272C14.5225 13.7272 13.7291 14.5057 13.7291 15.4662C13.7291 16.426 14.5225 17.2044 15.5 17.2044C16.4775 17.2044 17.2708 16.426 17.2708 15.4662C17.2708 14.5057 16.4775 13.7272 15.5 13.7272ZM18.8447 13.1478C18.8447 12.8277 19.1089 12.5684 19.4355 12.5684H20.2217C20.5475 12.5684 20.8125 12.8277 20.8125 13.1478C20.811 13.3029 20.748 13.451 20.6373 13.5596C20.5267 13.6683 20.3775 13.7286 20.2224 13.7272H19.4355C19.3586 13.728 19.2824 13.7136 19.2111 13.6849C19.1399 13.6562 19.0749 13.6137 19.0201 13.5599C18.9652 13.5061 18.9215 13.442 18.8914 13.3713C18.8613 13.3006 18.8455 13.2247 18.8447 13.1478Z" fill="white"/>
</svg>
