<svg width="18" height="18" viewBox="0 0 18 18" fill="none" xmlns="http://www.w3.org/2000/svg">
<path fill-rule="evenodd" clip-rule="evenodd" d="M8.95449 0.399903H9.04629C10.893 0.399892 12.3402 0.399884 13.4694 0.5517C14.6252 0.707091 15.5372 1.03136 16.2531 1.74721C16.9689 2.46306 17.2932 3.37508 17.4486 4.53087C17.6004 5.66006 17.6004 7.10729 17.6004 8.954V9.0458C17.6004 10.8925 17.6004 12.3397 17.4486 13.4689C17.2932 14.6247 16.9689 15.5367 16.2531 16.2526C15.5372 16.9684 14.6252 17.2927 13.4694 17.4481C12.3402 17.5999 10.893 17.5999 9.04629 17.5999H8.95449C7.10778 17.5999 5.66055 17.5999 4.53135 17.4481C3.37557 17.2927 2.46355 16.9684 1.7477 16.2526C1.03185 15.5367 0.70758 14.6247 0.552188 13.4689C0.400372 12.3397 0.40038 10.8925 0.400391 9.0458V8.954C0.40038 7.10729 0.400372 5.66006 0.552188 4.53087C0.70758 3.37508 1.03185 2.46306 1.7477 1.74721C2.46355 1.03136 3.37557 0.707091 4.53135 0.5517C5.66054 0.399884 7.10777 0.399892 8.95449 0.399903ZM4.40039 1.78535C3.54853 1.93195 3.00703 2.18494 2.59623 2.59574C2.18543 3.00654 1.93244 3.54804 1.78584 4.3999H4.40039V1.78535ZM5.60039 1.65588V16.3439C6.50106 16.3992 7.60698 16.3999 9.00039 16.3999C10.3938 16.3999 11.4997 16.3992 12.4004 16.3439V1.65588C11.4997 1.60059 10.3938 1.5999 9.00039 1.5999C7.60698 1.5999 6.50106 1.60059 5.60039 1.65588ZM13.6004 1.78535V4.3999H16.2149C16.0683 3.54804 15.8154 3.00654 15.4046 2.59574C14.9938 2.18494 14.4523 1.93195 13.6004 1.78535ZM16.3444 5.5999H13.6004V8.3999H16.4002C16.399 7.28366 16.3915 6.36729 16.3444 5.5999ZM16.4002 9.5999H13.6004V12.3999H16.3444C16.3915 11.6325 16.399 10.7161 16.4002 9.5999ZM16.2149 13.5999H13.6004V16.2145C14.4523 16.0679 14.9938 15.8149 15.4046 15.4041C15.8154 14.9933 16.0683 14.4518 16.2149 13.5999ZM4.40039 16.2145V13.5999H1.78584C1.93244 14.4518 2.18543 14.9933 2.59623 15.4041C3.00703 15.8149 3.54853 16.0679 4.40039 16.2145ZM1.65637 12.3999H4.40039V9.5999H1.60061C1.60179 10.7161 1.60926 11.6325 1.65637 12.3999ZM1.60061 8.3999H4.40039V5.5999H1.65637C1.60926 6.36729 1.60179 7.28366 1.60061 8.3999ZM9.62386 7.1984C9.6372 7.20737 9.65059 7.21637 9.66402 7.2254L9.70108 7.2503C10.0929 7.51358 10.4431 7.7489 10.6892 7.97559C10.9564 8.22176 11.2004 8.5469 11.2004 8.9999C11.2004 9.45291 10.9564 9.77805 10.6892 10.0242C10.4431 10.2509 10.0929 10.4862 9.70109 10.7495L9.66402 10.7744C9.65059 10.7834 9.63721 10.7924 9.62387 10.8014C9.22906 11.0668 8.87355 11.3058 8.57485 11.444C8.26101 11.5891 7.81593 11.713 7.38952 11.4308C6.99779 11.1716 6.88966 10.7384 6.84527 10.3915C6.80034 10.0402 6.80036 9.57872 6.80039 9.04101V8.9588C6.80036 8.42109 6.80034 7.95959 6.84527 7.60832C6.88966 7.26139 6.99779 6.82825 7.38952 6.569C7.81593 6.28682 8.26101 6.41067 8.57485 6.55583C8.87355 6.69398 9.22905 6.93298 9.62386 7.1984ZM8.05587 7.63804C8.06076 7.64023 8.06584 7.64254 8.07111 7.64497C8.27185 7.73782 8.54656 7.9202 8.99464 8.22135C9.43525 8.51749 9.70621 8.70164 9.87609 8.85815C9.95534 8.93116 9.98597 8.97498 9.99692 8.99462C9.99812 8.99678 9.99902 8.99853 9.99969 8.9999C9.99902 9.00127 9.99812 9.00302 9.99692 9.00518C9.98597 9.02482 9.95534 9.06864 9.87609 9.14165C9.7062 9.29816 9.43525 9.48231 8.99463 9.77845C8.54656 10.0796 8.27185 10.262 8.07111 10.3548C8.06584 10.3573 8.06075 10.3596 8.05586 10.3618C8.04912 10.3303 8.04208 10.2901 8.03557 10.2392C8.00159 9.97355 8.00039 9.59033 8.00039 8.9999C8.00039 8.40947 8.00159 8.02626 8.03557 7.76059C8.04208 7.70975 8.04913 7.66953 8.05587 7.63804Z" fill="#958E8E"/>
</svg>
