<svg width="19" height="19" viewBox="0 0 19 19" fill="none" xmlns="http://www.w3.org/2000/svg">
<path d="M8.97613 4.429L10.4999 2.90519C11.3082 2.09691 12.4045 1.64282 13.5476 1.64282C14.6906 1.64282 15.7869 2.09691 16.5952 2.90519C17.4035 3.71347 17.8575 4.80973 17.8575 5.95281C17.8575 7.09588 17.4035 8.19215 16.5952 9.00042L15.0714 10.5242M10.4999 15.0957L8.97613 16.6195C8.16785 17.4278 7.07159 17.8818 5.92851 17.8818C4.78544 17.8818 3.68917 17.4278 2.8809 16.6195C2.07262 15.8112 1.61853 14.7149 1.61853 13.5719C1.61853 12.4288 2.07262 11.3325 2.8809 10.5242L4.4047 9.00042M5.92851 13.5719L13.5476 5.95281" stroke="url(#paint0_linear_2477_7918)" stroke-width="1.71429" stroke-linecap="round" stroke-linejoin="round"/>
<defs>
<linearGradient id="paint0_linear_2477_7918" x1="4.43103" y1="4.03479" x2="18.7759" y2="34.9313" gradientUnits="userSpaceOnUse">
<stop stop-color="#162F6B"/>
<stop offset="1" stop-color="#3BB8FE" stop-opacity="0"/>
</linearGradient>
</defs>
</svg>
