<svg width="20" height="20" viewBox="0 0 20 20" fill="none" xmlns="http://www.w3.org/2000/svg">
<path d="M9.04797 7.14273L10.0003 6.19035C10.5055 5.68517 11.1907 5.40137 11.9051 5.40137C12.6195 5.40137 13.3047 5.68517 13.8099 6.19035C14.315 6.69552 14.5988 7.38068 14.5988 8.09511C14.5988 8.80953 14.315 9.4947 13.8099 9.99987L12.8575 10.9523M10.0003 13.8094L9.04797 14.7618C8.54279 15.2669 7.85763 15.5508 7.1432 15.5508C6.42878 15.5508 5.74362 15.2669 5.23844 14.7618C4.73327 14.2566 4.44946 13.5714 4.44946 12.857C4.44946 12.1426 4.73327 11.4574 5.23844 10.9523L6.19082 9.99987M7.1432 12.857L11.9051 8.09511" stroke="#303030" stroke-width="1.25" stroke-linecap="round" stroke-linejoin="round"/>
</svg>
