<svg width="33" height="32" viewBox="0 0 33 32" fill="none" xmlns="http://www.w3.org/2000/svg">
<path d="M14.9761 11.429L16.4999 9.90519C17.3082 9.09691 18.4045 8.64282 19.5476 8.64282C20.6906 8.64282 21.7869 9.09691 22.5952 9.90519C23.4035 10.7135 23.8575 11.8097 23.8575 12.9528C23.8575 14.0959 23.4035 15.1921 22.5952 16.0004L21.0714 17.5242M16.4999 22.0957L14.9761 23.6195C14.1679 24.4278 13.0716 24.8818 11.9285 24.8818C10.7854 24.8818 9.68917 24.4278 8.8809 23.6195C8.07262 22.8112 7.61853 21.7149 7.61853 20.5719C7.61853 19.4288 8.07262 18.3325 8.8809 17.5242L10.4047 16.0004M11.9285 20.5719L19.5476 12.9528" stroke="url(#paint0_linear_2477_7917)" stroke-width="1.71429" stroke-linecap="round" stroke-linejoin="round"/>
<defs>
<linearGradient id="paint0_linear_2477_7917" x1="10.431" y1="11.0348" x2="24.7759" y2="41.9313" gradientUnits="userSpaceOnUse">
<stop stop-color="#162F6B"/>
<stop offset="1" stop-color="#3BB8FE" stop-opacity="0"/>
</linearGradient>
</defs>
</svg>
