<svg width="16" height="16" viewBox="0 0 16 16" fill="none" xmlns="http://www.w3.org/2000/svg">
<path d="M7.23837 5.71438L8.00028 4.95247C8.40442 4.54833 8.95255 4.32129 9.52409 4.32129C10.0956 4.32129 10.6438 4.54833 11.0479 4.95247C11.452 5.35661 11.6791 5.90474 11.6791 6.47628C11.6791 7.04782 11.452 7.59595 11.0479 8.00009L10.286 8.762M8.00028 11.0477L7.23837 11.8096C6.83423 12.2138 6.2861 12.4408 5.71456 12.4408C5.14302 12.4408 4.59489 12.2138 4.19075 11.8096C3.78661 11.4055 3.55957 10.8573 3.55957 10.2858C3.55957 9.71427 3.78661 9.16614 4.19075 8.762L4.95266 8.00009M5.71456 10.2858L9.52409 6.47628" stroke="#303030" stroke-linecap="round" stroke-linejoin="round"/>
</svg>
