<svg width="17" height="16" viewBox="0 0 17 16" fill="none" xmlns="http://www.w3.org/2000/svg">
<path fill-rule="evenodd" clip-rule="evenodd" d="M8.50085 16C4.72962 16 2.844 16 1.67243 14.8284C0.500854 13.6569 0.500854 11.7712 0.500854 8C0.500854 4.22876 0.500854 2.34315 1.67243 1.17157C2.844 0 4.72962 0 8.50085 0C12.2721 0 14.1577 0 15.3293 1.17157C16.5009 2.34315 16.5009 4.22876 16.5009 8C16.5009 11.7712 16.5009 13.6569 15.3293 14.8284C14.1577 16 12.2721 16 8.50085 16ZM8.50085 5C8.83222 5 9.10085 5.26863 9.10085 5.6V7.40002H10.9009C11.2322 7.40002 11.5009 7.66865 11.5009 8.00002C11.5009 8.33139 11.2322 8.60002 10.9009 8.60002H9.10085L9.10085 10.4C9.10085 10.7314 8.83222 11 8.50085 11C8.16948 11 7.90085 10.7314 7.90085 10.4V8.60002H6.10085C5.76948 8.60002 5.50085 8.33139 5.50085 8.00002C5.50085 7.66865 5.76948 7.40002 6.10085 7.40002H7.90085L7.90085 5.6C7.90085 5.26863 8.16948 5 8.50085 5Z" fill="#958E8E"/>
</svg>
