<svg width="33" height="33" viewBox="0 0 33 33" fill="none" xmlns="http://www.w3.org/2000/svg">
<rect x="0.804199" y="0.5" width="32" height="32" rx="8" fill="#4690B5"/>
<path d="M25.3699 16.8711L25.8633 15.0296C26.4393 12.8801 26.7273 11.8053 26.5104 10.8752C26.3392 10.1409 25.954 9.47373 25.4036 8.95824C24.7066 8.30537 23.6318 8.01739 21.4823 7.44143C19.3327 6.86546 18.258 6.57748 17.3279 6.79435C16.5935 6.96559 15.9264 7.35075 15.4109 7.90114C14.8519 8.49795 14.5604 9.37163 14.1266 10.9597C14.0538 11.2264 13.9769 11.5132 13.8941 11.8223L13.8941 11.8225L13.4007 13.6639C12.8247 15.8134 12.5367 16.8882 12.7536 17.8183C12.9248 18.5527 13.31 19.2198 13.8604 19.7353C14.5574 20.3882 15.6322 20.6761 17.7817 21.2521L17.7817 21.2521L17.7817 21.2521C19.7192 21.7712 20.7835 22.0564 21.6557 21.9488C21.7512 21.9371 21.8443 21.9206 21.9361 21.8992C22.6705 21.7279 23.3376 21.3428 23.8531 20.7924C24.506 20.0953 24.7939 19.0206 25.3699 16.8711Z" fill="white"/>
<path d="M8.63503 18.8419L9.12844 20.6834C9.7044 22.8329 9.99238 23.9076 10.6452 24.6047C11.1607 25.1551 11.8279 25.5403 12.5623 25.7115C13.4924 25.9284 14.5671 25.6404 16.7166 25.0644C18.8662 24.4885 19.9409 24.2005 20.638 23.5476C20.6958 23.4934 20.7519 23.4376 20.806 23.3801C20.4875 23.3534 20.1662 23.3021 19.8397 23.2372C19.1761 23.1053 18.3877 22.894 17.4553 22.6441L17.3535 22.6169L17.3299 22.6106C16.3154 22.3387 15.4677 22.1111 14.7909 21.8666C14.0792 21.6095 13.4325 21.2926 12.8833 20.7782C12.1265 20.0694 11.5969 19.1521 11.3615 18.1423C11.1906 17.4096 11.2395 16.691 11.3727 15.9461C11.5003 15.2322 11.7296 14.3767 12.0042 13.3517L12.0043 13.3517L12.5136 11.4506L12.5315 11.3838C10.7009 11.8769 9.73733 12.1687 9.09474 12.7705C8.54436 13.286 8.15919 13.9532 7.98795 14.6876C7.77109 15.6177 8.05907 16.6924 8.63503 18.8419Z" fill="white"/>
</svg>
