<svg width="33" height="33" viewBox="0 0 33 33" fill="none" xmlns="http://www.w3.org/2000/svg">
<rect x="0.304199" y="0.5" width="32" height="32" rx="8" fill="#4690B5"/>
<path d="M20.9989 6.22502C19.7445 6.13403 18.2071 6.13403 16.2955 6.13403H16.1933L12.5674 11.5729H17.4336L20.9989 6.22502Z" fill="white"/>
<path d="M14.3226 6.13864C10.724 6.16586 8.75035 6.35376 7.45293 7.65118C6.56442 8.53969 6.19626 9.74535 6.04372 11.5729H10.6998L14.3226 6.13864Z" fill="white"/>
<path fill-rule="evenodd" clip-rule="evenodd" d="M5.96319 13.1269C5.93579 14.0993 5.93579 15.2125 5.93579 16.4937C5.93579 21.3773 5.93579 23.8191 7.45293 25.3363C8.97008 26.8534 11.4119 26.8534 16.2955 26.8534C21.1791 26.8534 23.6209 26.8534 25.138 25.3363C26.6552 23.8191 26.6552 21.3773 26.6552 16.4937C26.6552 15.2125 26.6552 14.0993 26.6278 13.1269H5.96319ZM9.82068 18.5657C9.82068 18.1366 10.1685 17.7887 10.5977 17.7887H18.8854C19.3145 17.7887 19.6624 18.1366 19.6624 18.5657C19.6624 18.9948 19.3145 19.3426 18.8854 19.3426H10.5977C10.1685 19.3426 9.82068 18.9948 9.82068 18.5657ZM10.5977 21.4146C10.1685 21.4146 9.82068 21.7624 9.82068 22.1916C9.82068 22.6207 10.1685 22.9685 10.5977 22.9685H16.2955C16.7246 22.9685 17.0725 22.6207 17.0725 22.1916C17.0725 21.7624 16.7246 21.4146 16.2955 21.4146H10.5977Z" fill="white"/>
<path d="M25.138 7.65118C26.0266 8.53969 26.3947 9.74535 26.5473 11.5729H19.3012L22.7172 6.449C23.7466 6.66596 24.5192 7.03237 25.138 7.65118Z" fill="white"/>
</svg>
