<svg width="33" height="33" viewBox="0 0 33 33" fill="none" xmlns="http://www.w3.org/2000/svg">
<rect x="0.304199" y="0.5" width="32" height="32" rx="8" fill="#4690B5"/>
<path d="M19.2852 11.6086L22.9793 10.6188C23.2225 10.5536 23.3442 10.521 23.4399 10.4738C23.8332 10.2798 24.0709 9.86811 24.0422 9.43057C24.0352 9.32403 24.0027 9.20239 23.9375 8.9591C23.7419 8.22926 23.6441 7.86433 23.5024 7.57705C22.9207 6.39728 21.6855 5.68415 20.3729 5.77018C20.2393 5.77894 20.0978 5.80111 19.9251 5.83823C19.9457 5.92745 19.9515 6.0217 19.9401 6.11787L19.2852 11.6086Z" fill="white"/>
<path d="M13.1157 7.65003L18.2849 6.26496L17.634 11.7222C17.6207 11.8337 17.6306 11.9426 17.66 12.0441L12.4787 13.4324L13.1336 7.94166C13.1456 7.84117 13.1387 7.74278 13.1157 7.65003Z" fill="white"/>
<path fill-rule="evenodd" clip-rule="evenodd" d="M20.5415 14.7577H7.53239V20.1782C7.53239 23.2445 7.53239 24.7776 8.48496 25.7302C9.43753 26.6827 10.9707 26.6827 14.0369 26.6827H18.3733C21.4396 26.6827 22.9727 26.6827 23.9253 25.7302C24.8778 24.7776 24.8778 23.2445 24.8778 20.1782V19.0941C24.8778 17.0499 24.8778 16.0278 24.2428 15.3928C23.6077 14.7577 22.5857 14.7577 20.5415 14.7577ZM17.0815 19.3364C17.9427 19.9538 18.3733 20.2625 18.3733 20.7202C18.3733 21.178 17.9427 21.4867 17.0815 22.1041C16.2085 22.73 15.772 23.0429 15.4465 22.8131C15.121 22.5834 15.121 21.9623 15.121 20.7202C15.121 19.4782 15.121 18.8571 15.4465 18.6274C15.772 18.3976 16.2085 18.7105 17.0815 19.3364Z" fill="white"/>
<path d="M10.8275 13.546C10.8142 13.6575 10.8241 13.7664 10.8535 13.8679L7.53378 14.7574C7.0093 12.8 6.74707 11.8213 6.97261 10.9796C7.12037 10.4281 7.41068 9.9253 7.81436 9.52162C8.43057 8.90542 9.40925 8.64318 11.3666 8.1187L11.4784 8.08875L10.8275 13.546Z" fill="white"/>
</svg>
