<svg width="33" height="33" viewBox="0 0 33 33" fill="none" xmlns="http://www.w3.org/2000/svg">
<rect x="0.304199" y="0.5" width="32" height="32" rx="8" fill="#4690B5"/>
<path fill-rule="evenodd" clip-rule="evenodd" d="M15.3079 5.0658C15.3079 4.84134 15.3971 4.62608 15.5558 4.46736C15.7145 4.30865 15.9298 4.21948 16.1542 4.21948C22.8537 4.21948 28.2848 9.65059 28.2848 16.35C28.2848 23.0495 22.8537 28.4806 16.1542 28.4806C9.45478 28.4806 4.02368 23.0495 4.02368 16.35C4.02368 16.1256 4.11285 15.9103 4.27156 15.7516C4.43028 15.5929 4.64554 15.5037 4.87 15.5037C5.09446 15.5037 5.30972 15.5929 5.46844 15.7516C5.62715 15.9103 5.71632 16.1256 5.71632 16.35C5.71632 18.4145 6.32849 20.4325 7.47542 22.149C8.62236 23.8655 10.2525 25.2034 12.1598 25.9934C14.0671 26.7834 16.1658 26.9901 18.1906 26.5874C20.2153 26.1846 22.0752 25.1905 23.535 23.7308C24.9947 22.271 25.9888 20.4111 26.3916 18.3864C26.7943 16.3616 26.5876 14.2629 25.7976 12.3556C25.0076 10.4483 23.6697 8.81816 21.9532 7.67122C20.2367 6.52429 18.2187 5.91212 16.1542 5.91212C15.9298 5.91212 15.7145 5.82295 15.5558 5.66424C15.3971 5.50552 15.3079 5.29026 15.3079 5.0658ZM16.1542 12.1184C16.3787 12.1184 16.594 12.2076 16.7527 12.3663C16.9114 12.525 17.0006 12.7403 17.0006 12.9648V16.6321H20.6679C20.8924 16.6321 21.1077 16.7213 21.2664 16.88C21.4251 17.0387 21.5142 17.254 21.5142 17.4785C21.5142 17.7029 21.4251 17.9182 21.2664 18.0769C21.1077 18.2356 20.8924 18.3248 20.6679 18.3248H16.1542C15.9298 18.3248 15.7145 18.2356 15.5558 18.0769C15.3971 17.9182 15.3079 17.7029 15.3079 17.4785V12.9648C15.3079 12.7403 15.3971 12.525 15.5558 12.3663C15.7145 12.2076 15.9298 12.1184 16.1542 12.1184ZM12.8818 5.51491C12.9219 5.61864 12.9411 5.72924 12.9384 5.8404C12.9357 5.95156 12.9111 6.06109 12.866 6.16274C12.8209 6.26439 12.7563 6.35617 12.6757 6.43282C12.5952 6.50947 12.5003 6.56951 12.3966 6.60948C12.237 6.67064 12.079 6.73573 11.9226 6.8047C11.8204 6.85495 11.7091 6.88403 11.5953 6.89022C11.4816 6.8964 11.3677 6.87955 11.2606 6.84068C11.1535 6.80182 11.0554 6.74173 10.9721 6.66402C10.8888 6.58631 10.822 6.49258 10.7758 6.38845C10.7296 6.28432 10.7049 6.17193 10.7032 6.05802C10.7014 5.94411 10.7227 5.83102 10.7657 5.72553C10.8088 5.62004 10.8726 5.52433 10.9535 5.44412C11.0344 5.36392 11.1307 5.30087 11.2366 5.25876C11.4171 5.17751 11.601 5.10078 11.7872 5.02969C11.891 4.98964 12.0016 4.97042 12.1127 4.97313C12.2239 4.97584 12.3334 5.00043 12.4351 5.04549C12.5367 5.09056 12.6285 5.15521 12.7051 5.23575C12.7818 5.3163 12.8418 5.41116 12.8818 5.51491ZM8.98649 7.59347C9.14115 7.75601 9.22493 7.97331 9.21943 8.19761C9.21393 8.4219 9.11959 8.63484 8.95715 8.7896C8.83347 8.90775 8.71269 9.0289 8.59493 9.15295C8.44005 9.31561 8.2269 9.41008 8.00237 9.41558C7.77784 9.42108 7.56033 9.33717 7.39767 9.18229C7.23501 9.02741 7.14054 8.81427 7.13504 8.58974C7.12954 8.36521 7.21345 8.14769 7.36833 7.98503C7.506 7.84172 7.64592 7.7018 7.78923 7.56413C7.95177 7.40947 8.16907 7.32568 8.39337 7.33119C8.61766 7.33669 8.83173 7.43103 8.98649 7.59347ZM6.17897 11.0024C6.28056 11.0475 6.37227 11.1122 6.44886 11.1928C6.52545 11.2734 6.58542 11.3682 6.62534 11.472C6.66526 11.5757 6.68436 11.6863 6.68154 11.7974C6.67872 11.9085 6.65404 12.018 6.6089 12.1196C6.54007 12.2753 6.47349 12.4333 6.41255 12.5924C6.32821 12.7967 6.16725 12.96 5.9641 13.0472C5.76095 13.1344 5.53175 13.1386 5.3255 13.059C5.11926 12.9794 4.95235 12.8223 4.86048 12.6212C4.76861 12.4201 4.75906 12.1911 4.83389 11.983C4.90498 11.7968 4.98059 11.614 5.06183 11.4324C5.10694 11.3308 5.17163 11.2391 5.25219 11.1625C5.33275 11.0859 5.42761 11.0259 5.53135 10.986C5.63508 10.9461 5.74567 10.927 5.85679 10.9298C5.96791 10.9326 6.07739 10.9573 6.17897 11.0024Z" fill="white"/>
</svg>
