<svg width="23" height="23" viewBox="0 0 23 23" fill="none" xmlns="http://www.w3.org/2000/svg">
<path d="M21.5704 4.11117C21.7477 3.94007 21.8891 3.73539 21.9865 3.50904C22.0838 3.2827 22.1351 3.03923 22.1374 2.79285C22.1397 2.54646 22.0928 2.3021 21.9996 2.07401C21.9064 1.84592 21.7687 1.63867 21.5946 1.46436C21.4205 1.29005 21.2133 1.15217 20.9853 1.05876C20.7573 0.965353 20.513 0.918288 20.2666 0.920312C20.0202 0.922336 19.7767 0.973409 19.5503 1.07055C19.3239 1.16769 19.119 1.30896 18.9478 1.48611L11.5105 8.92089L4.07573 1.48611C3.90585 1.30379 3.70099 1.15757 3.47337 1.05615C3.24576 0.954728 3.00004 0.900193 2.75089 0.895797C2.50173 0.891401 2.25425 0.937234 2.02319 1.03056C1.79214 1.12389 1.58225 1.2628 1.40604 1.439C1.22984 1.61521 1.09093 1.8251 0.997602 2.05615C0.904275 2.28721 0.858442 2.53469 0.862838 2.78385C0.867234 3.033 0.921769 3.27871 1.02319 3.50633C1.12461 3.73395 1.27084 3.93881 1.45315 4.10869L8.88298 11.5459L1.4482 18.9807C1.12042 19.3325 0.941981 19.7977 0.950463 20.2785C0.958945 20.7592 1.15369 21.2179 1.49367 21.5578C1.83365 21.8978 2.29231 22.0926 2.77304 22.1011C3.25377 22.1095 3.71902 21.9311 4.07078 21.6033L11.5105 14.1685L18.9453 21.6058C19.2971 21.9336 19.7623 22.112 20.243 22.1035C20.7238 22.095 21.1824 21.9003 21.5224 21.5603C21.8624 21.2203 22.0571 20.7617 22.0656 20.2809C22.0741 19.8002 21.8957 19.335 21.5679 18.9832L14.1381 11.5459L21.5704 4.11117Z" fill="black"/>
</svg>
