<svg width="20" height="22" viewBox="0 0 20 22" fill="none" xmlns="http://www.w3.org/2000/svg">
<path fill-rule="evenodd" clip-rule="evenodd" d="M16.7399 3.00591C16.3202 2.15484 15.4291 1.6404 14.4822 1.70246C14.3543 1.71085 14.2085 1.73825 13.9494 1.80253L13.4844 5.70146L16.7356 4.83029C16.8577 4.79757 16.9304 4.77799 16.9847 4.76144C17.019 4.75097 17.0336 4.74533 17.0371 4.7439C17.1299 4.6972 17.1862 4.59979 17.1802 4.49603C17.1797 4.49226 17.1773 4.47681 17.1692 4.44185C17.1564 4.3866 17.137 4.31388 17.1043 4.19175C16.9065 3.45355 16.8335 3.19574 16.7399 3.00591ZM11.8572 6.13746L12.3227 2.23443L7.4031 3.55264L6.93759 7.45567L11.8572 6.13746ZM5.31041 7.89167L5.77591 3.98867C4.92389 4.21729 4.31488 4.38439 3.8461 4.55666C3.35247 4.73808 3.08768 4.90043 2.90471 5.08339C2.6135 5.3746 2.40408 5.73734 2.29749 6.13514C2.23052 6.38507 2.22231 6.69556 2.31202 7.21377C2.37726 7.59059 2.48623 8.03711 2.63609 8.60825L5.31041 7.89167ZM1.29827 9.66365C1.06279 8.78475 0.873245 8.07206 0.770851 7.48056C0.662562 6.85502 0.636715 6.29002 0.786686 5.73032C0.964337 5.06732 1.31338 4.46276 1.79873 3.97741C2.20846 3.56768 2.71069 3.30756 3.30657 3.08857C3.88471 2.8761 4.61924 2.67929 5.53 2.43527L6.3441 2.21713C6.43532 2.17184 6.5361 2.144 6.64157 2.13742L12.8682 0.46899C12.8758 0.466958 12.8834 0.464934 12.8909 0.462916C12.9823 0.417566 13.0832 0.389709 13.1889 0.38318C13.683 0.251798 14.0448 0.163683 14.3799 0.141716C15.9581 0.0382779 17.4432 0.895684 18.1427 2.31413C18.3136 2.66083 18.4263 3.08185 18.5917 3.69953C18.5994 3.72823 18.6072 3.75737 18.6151 3.78694C18.6194 3.80302 18.6237 3.81916 18.6281 3.83537C18.6775 4.01852 18.7289 4.20912 18.7408 4.39168C18.7891 5.12815 18.389 5.82118 17.727 6.14761C17.5629 6.22853 17.3722 6.27934 17.1889 6.32816C17.1727 6.33248 17.1565 6.33678 17.1404 6.34109L8.02102 8.78463H14.6473C15.5842 8.7846 16.3654 8.78458 16.9856 8.86796C17.6402 8.95597 18.2312 9.14958 18.7062 9.62451C19.1811 10.0994 19.3747 10.6905 19.4627 11.3451C19.5461 11.9653 19.5461 12.7465 19.546 13.6834V14.8375C19.5461 16.2636 19.5461 17.413 19.4245 18.317C19.2983 19.2556 19.0284 20.0458 18.4008 20.6735C17.7731 21.3011 16.9829 21.5711 16.0443 21.6973C15.1403 21.8188 13.9909 21.8188 12.5648 21.8188H8.27948C6.85345 21.8188 5.70403 21.8188 4.80001 21.6973C3.86144 21.5711 3.07119 21.3011 2.44355 20.6735C1.81591 20.0458 1.54596 19.2556 1.41977 18.317C1.29823 17.413 1.29825 16.2636 1.29827 14.8376L1.29827 9.66365ZM2.86236 10.3487V14.7803C2.86236 16.2771 2.86402 17.321 2.96992 18.1086C3.07279 18.8737 3.26094 19.2789 3.54953 19.5675C3.83812 19.8561 4.24329 20.0442 5.00842 20.1471C5.79605 20.253 6.83994 20.2547 8.33669 20.2547H12.5076C14.0044 20.2547 15.0483 20.253 15.8359 20.1471C16.601 20.0442 17.0062 19.8561 17.2948 19.5675C17.5834 19.2789 17.7715 18.8737 17.8744 18.1086C17.9803 17.321 17.9819 16.2771 17.9819 14.7803V13.7376C17.9819 12.7324 17.9803 12.0572 17.9126 11.5535C17.8479 11.0723 17.7361 10.8664 17.6002 10.7305C17.4643 10.5946 17.2584 10.4828 16.7772 10.4181C16.2735 10.3504 15.5983 10.3487 14.5931 10.3487H2.86236ZM11.672 13.3001C11.6882 13.3117 11.7045 13.3234 11.7207 13.335C11.7353 13.3455 11.7499 13.3559 11.7644 13.3664C12.1408 13.6361 12.494 13.8892 12.7451 14.1359C13.0268 14.4127 13.2897 14.7858 13.2897 15.3017C13.2897 15.8176 13.0268 16.1907 12.7451 16.4674C12.494 16.7142 12.1408 16.9673 11.7644 17.237L11.7207 17.2684C11.7044 17.28 11.6882 17.2917 11.672 17.3033C11.2947 17.5739 10.935 17.8319 10.6273 17.9837C10.2988 18.1458 9.75857 18.3186 9.24149 17.9536C8.7925 17.6367 8.68504 17.1247 8.64207 16.7665C8.5973 16.3932 8.59733 15.906 8.59737 15.3503V15.2531C8.59733 14.6974 8.5973 14.2102 8.64207 13.8369C8.68504 13.4787 8.7925 12.9667 9.24149 12.6498C9.75857 12.2848 10.2988 12.4576 10.6273 12.6197C10.935 12.7715 11.2947 13.0295 11.672 13.3001ZM10.1814 14.1673C10.1624 14.4276 10.1615 14.7855 10.1615 15.3017C10.1615 15.8179 10.1624 16.1758 10.1814 16.4361C10.3365 16.335 10.5368 16.1926 10.8094 15.9972C11.2452 15.6848 11.4954 15.5026 11.6488 15.3518C11.6689 15.3321 11.6847 15.3155 11.697 15.3017C11.6847 15.2879 11.6689 15.2713 11.6488 15.2516C11.4954 15.1008 11.2452 14.9186 10.8094 14.6062C10.5368 14.4108 10.3365 14.2684 10.1814 14.1673Z" fill="#958E8E"/>
</svg>
