<svg width="15" height="18" viewBox="0 0 15 18" fill="none" xmlns="http://www.w3.org/2000/svg">
<path fill-rule="evenodd" clip-rule="evenodd" d="M12.8472 3.16632C12.5252 2.51336 11.8416 2.11867 11.1151 2.16629C11.0169 2.17272 10.9051 2.19375 10.7063 2.24306L10.3495 5.23439L12.8439 4.56601C12.9376 4.54091 12.9934 4.52589 13.035 4.51319C13.0613 4.50516 13.0725 4.50083 13.0752 4.49973C13.1465 4.46391 13.1896 4.38917 13.185 4.30956C13.1846 4.30667 13.1828 4.29482 13.1766 4.26799C13.1667 4.22561 13.1519 4.16981 13.1268 4.07612C12.975 3.50975 12.919 3.31196 12.8472 3.16632ZM9.10112 5.5689L9.45827 2.57443L5.68385 3.58578L5.32671 6.58025L9.10112 5.5689ZM4.07831 6.91476L4.43545 3.92031C3.78176 4.09571 3.31452 4.22391 2.95486 4.35608C2.57614 4.49527 2.37299 4.61982 2.23261 4.7602C2.00919 4.98362 1.84852 5.26191 1.76674 5.56711C1.71536 5.75887 1.70907 5.99708 1.77789 6.39466C1.82794 6.68376 1.91155 7.02634 2.02652 7.46453L4.07831 6.91476ZM1.00012 8.27425C0.819461 7.59994 0.674037 7.05315 0.595478 6.59935C0.512397 6.11942 0.492567 5.68594 0.607627 5.25653C0.743924 4.74786 1.01172 4.28404 1.38408 3.91167C1.69844 3.59732 2.08376 3.39775 2.54092 3.22974C2.98448 3.06673 3.54803 2.91573 4.24678 2.72851L4.87137 2.56115C4.94136 2.52641 5.01868 2.50505 5.0996 2.5L9.8768 1.21995C9.88262 1.21839 9.88841 1.21684 9.89419 1.21529C9.96428 1.1805 10.0417 1.15912 10.1228 1.15411C10.5019 1.05332 10.7795 0.985712 11.0366 0.968858C12.2474 0.889499 13.3868 1.54732 13.9234 2.63557C14.0546 2.90157 14.1411 3.22458 14.2679 3.69847C14.2738 3.7205 14.2798 3.74285 14.2859 3.76553C14.2892 3.77787 14.2925 3.79026 14.2959 3.80269C14.3338 3.94321 14.3732 4.08944 14.3824 4.2295C14.4194 4.79454 14.1124 5.32624 13.6046 5.57669C13.4787 5.63877 13.3323 5.67775 13.1917 5.7152C13.1792 5.71852 13.1668 5.72182 13.1545 5.72513L6.15793 7.59985L11.2417 7.59985C11.9605 7.59983 12.5599 7.59981 13.0357 7.66378C13.5379 7.73131 13.9914 7.87984 14.3558 8.24422C14.7201 8.6086 14.8687 9.06204 14.9362 9.56427C15.0002 10.0401 15.0001 10.6395 15.0001 11.3583V12.2438C15.0001 13.3378 15.0002 14.2197 14.9069 14.9133C14.8101 15.6333 14.603 16.2396 14.1214 16.7212C13.6399 17.2027 13.0336 17.4098 12.3135 17.5066C11.6199 17.5999 10.7381 17.5999 9.64402 17.5999H6.35623C5.26215 17.5999 4.3803 17.5999 3.68672 17.5066C2.96663 17.4098 2.36033 17.2027 1.8788 16.7212C1.39727 16.2396 1.19015 15.6333 1.09334 14.9133C1.00009 14.2197 1.0001 13.3378 1.00012 12.2438L1.00012 8.27425ZM2.20012 8.79985V12.1999C2.20012 13.3482 2.2014 14.1491 2.28264 14.7534C2.36156 15.3404 2.50592 15.6512 2.72733 15.8726C2.94874 16.0941 3.2596 16.2384 3.84662 16.3173C4.4509 16.3986 5.25179 16.3999 6.40012 16.3999H9.60012C10.7485 16.3999 11.5493 16.3986 12.1536 16.3173C12.7406 16.2384 13.0515 16.0941 13.2729 15.8726C13.4943 15.6512 13.6387 15.3404 13.7176 14.7534C13.7988 14.1491 13.8001 13.3482 13.8001 12.1999V11.3999C13.8001 10.6286 13.7988 10.1106 13.7469 9.72417C13.6973 9.355 13.6115 9.197 13.5072 9.09275C13.403 8.98849 13.245 8.90272 12.8758 8.85308C12.4894 8.80113 11.9713 8.79985 11.2001 8.79985H2.20012ZM8.95902 11.0642C8.97146 11.0731 8.98393 11.082 8.99642 11.091C9.00762 11.099 9.01879 11.107 9.02994 11.115C9.31868 11.3219 9.58972 11.5162 9.78234 11.7055C9.99843 11.9178 10.2001 12.2041 10.2001 12.5999C10.2001 12.9956 9.99842 13.2819 9.78234 13.4942C9.58971 13.6835 9.31867 13.8778 9.02993 14.0847L8.99642 14.1087C8.98392 14.1177 8.97146 14.1266 8.95901 14.1355C8.66955 14.3431 8.39362 14.5411 8.15752 14.6575C7.90552 14.7819 7.49101 14.9145 7.0943 14.6345C6.74983 14.3913 6.66738 13.9985 6.63442 13.7237C6.60007 13.4373 6.60009 13.0635 6.60012 12.6371V12.5626C6.60009 12.1363 6.60007 11.7625 6.63442 11.4761C6.66738 11.2012 6.74983 10.8084 7.0943 10.5652C7.49101 10.2852 7.90552 10.4178 8.15752 10.5422C8.39362 10.6587 8.66956 10.8566 8.95902 11.0642ZM7.81544 11.7295C7.80086 11.9292 7.80012 12.2038 7.80012 12.5999C7.80012 12.9959 7.80086 13.2705 7.81544 13.4702C7.93438 13.3927 8.08807 13.2834 8.29724 13.1334C8.63156 12.8938 8.82355 12.754 8.94126 12.6383C8.95667 12.6232 8.96875 12.6104 8.97818 12.5999C8.96875 12.5893 8.95667 12.5765 8.94126 12.5614C8.82355 12.4457 8.63156 12.3059 8.29724 12.0663C8.08807 11.9163 7.93438 11.8071 7.81544 11.7295Z" fill="#958E8E"/>
</svg>
 