<svg width="15" height="20" viewBox="0 0 15 20" fill="none" xmlns="http://www.w3.org/2000/svg">
<path d="M3.98156 17.6834L11.7465 10.591C11.8387 10.5066 11.9041 10.4151 11.9428 10.3166C11.9816 10.2181 12.0006 10.1126 12 10C12 9.88742 11.9806 9.78188 11.9419 9.68338C11.9032 9.58487 11.8381 9.4934 11.7465 9.40897L3.98156 2.29551C3.76651 2.0985 3.49769 2 3.17511 2C2.85253 2 2.57604 2.10554 2.34562 2.31662C2.11521 2.5277 2 2.77397 2 3.05541C2 3.33685 2.11521 3.58311 2.34562 3.7942L9.11981 10L2.34562 16.2058C2.13057 16.4028 2.02304 16.6457 2.02304 16.9345C2.02304 17.2232 2.13825 17.4729 2.36866 17.6834C2.59908 17.8945 2.86789 18 3.17511 18C3.48233 18 3.75115 17.8945 3.98156 17.6834Z" fill="#303030" fill-opacity="0.7"/>
</svg>
