<svg width="16" height="16" viewBox="0 0 16 16" fill="none" xmlns="http://www.w3.org/2000/svg">
<mask id="mask0_2469_7603" style="mask-type:alpha" maskUnits="userSpaceOnUse" x="0" y="0" width="16" height="16">
<rect width="16" height="16" fill="#D9D9D9"/>
</mask>
<g mask="url(#mask0_2469_7603)">
<path d="M10.2976 8.43068L9.76682 7.89991C9.86682 7.31786 9.70186 6.81401 9.27195 6.38838C8.84203 5.96273 8.34032 5.79991 7.76682 5.89991L7.23605 5.36914C7.34802 5.32299 7.46489 5.28837 7.58668 5.26529C7.70848 5.24222 7.84631 5.23068 8.00015 5.23068C8.67964 5.23068 9.25549 5.46679 9.72772 5.93901C10.1999 6.41123 10.436 6.98709 10.436 7.66658C10.436 7.82042 10.4245 7.96252 10.4014 8.09286C10.3784 8.22321 10.3437 8.33581 10.2976 8.43068ZM12.4053 10.4794L11.9001 10.0332C12.3224 9.71102 12.6974 9.35824 13.0251 8.97491C13.3529 8.59158 13.6335 8.15547 13.8668 7.66658C13.3113 6.54436 12.514 5.65269 11.4751 4.99158C10.4363 4.33047 9.27793 3.99991 8.00015 3.99991C7.67793 3.99991 7.36126 4.02213 7.05015 4.06658C6.73904 4.11102 6.43348 4.17769 6.13348 4.26658L5.61297 3.74606C6.00014 3.59991 6.39416 3.49456 6.79502 3.43003C7.19587 3.36551 7.59758 3.33324 8.00015 3.33324C9.44716 3.33324 10.7707 3.7309 11.9707 4.5262C13.1707 5.3215 14.0523 6.36829 14.6155 7.66658C14.3771 8.20248 14.0752 8.70611 13.7098 9.17748C13.3444 9.64885 12.9096 10.0828 12.4053 10.4794ZM13.1489 14.0922L10.554 11.505C10.2591 11.6358 9.89309 11.751 9.45592 11.8506C9.01874 11.9501 8.53348 11.9999 8.00015 11.9999C6.54459 11.9999 5.22109 11.6023 4.02963 10.807C2.83818 10.0117 1.95655 8.96487 1.38477 7.66658C1.64373 7.07769 1.98518 6.5262 2.40912 6.0121C2.83305 5.498 3.28562 5.06658 3.76682 4.71786L1.90783 2.8512L2.37963 2.37939L13.6207 13.6204L13.1489 14.0922ZM4.2386 5.18966C3.85655 5.46145 3.46596 5.81871 3.06682 6.26145C2.66767 6.70419 2.35656 7.17257 2.13348 7.66658C2.68904 8.7888 3.48626 9.68047 4.52515 10.3416C5.56404 11.0027 6.72237 11.3332 8.00015 11.3332C8.38476 11.3332 8.77237 11.2959 9.16297 11.2211C9.55357 11.1463 9.84715 11.0709 10.0437 10.9948L8.95657 9.89991C8.85143 9.95889 8.70485 10.0074 8.51682 10.0454C8.32878 10.0835 8.15656 10.1025 8.00015 10.1025C7.32066 10.1025 6.74481 9.86637 6.27258 9.39415C5.80036 8.92192 5.56425 8.34607 5.56425 7.66658C5.56425 7.51871 5.58327 7.3529 5.6213 7.16914C5.65933 6.98538 5.70784 6.83238 5.76682 6.71016L4.2386 5.18966Z" fill="#303030"/>
</g>
</svg>
