<svg width="20" height="20" viewBox="0 0 20 20" fill="none" xmlns="http://www.w3.org/2000/svg">
<mask id="mask0_2461_5793" style="mask-type:alpha" maskUnits="userSpaceOnUse" x="0" y="0" width="20" height="20">
<rect width="20" height="20" fill="#D9D9D9"/>
</mask>
<g mask="url(#mask0_2461_5793)">
<path d="M12.872 10.5385L12.2085 9.87501C12.3335 9.14744 12.1273 8.51764 11.5899 7.98559C11.0525 7.45354 10.4254 7.25001 9.70852 7.37501L9.04506 6.71155C9.18502 6.65386 9.33112 6.61059 9.48335 6.58174C9.6356 6.55289 9.80788 6.53847 10.0002 6.53847C10.8495 6.53847 11.5694 6.83361 12.1596 7.42389C12.7499 8.01416 13.0451 8.73398 13.0451 9.58334C13.0451 9.77565 13.0306 9.95327 13.0018 10.1162C12.9729 10.2791 12.9297 10.4199 12.872 10.5385ZM15.5066 13.0994L14.8752 12.5417C15.403 12.1389 15.8717 11.6979 16.2814 11.2188C16.6912 10.7396 17.0419 10.1945 17.3335 9.58334C16.6391 8.18057 15.6425 7.06598 14.3439 6.23959C13.0453 5.41321 11.5974 5.00001 10.0002 5.00001C9.59741 5.00001 9.20158 5.02779 8.81269 5.08334C8.4238 5.1389 8.04185 5.22223 7.66685 5.33334L7.01621 4.6827C7.50018 4.5 7.9927 4.36832 8.49377 4.28766C8.99484 4.207 9.49698 4.16668 10.0002 4.16668C11.809 4.16668 13.4633 4.66374 14.9633 5.65787C16.4633 6.65199 17.5654 7.96048 18.2694 9.58334C17.9713 10.2532 17.5939 10.8828 17.1372 11.472C16.6805 12.0612 16.137 12.6036 15.5066 13.0994ZM16.4361 17.6154L13.1925 14.3814C12.8239 14.5449 12.3664 14.6889 11.8199 14.8133C11.2734 14.9378 10.6669 15 10.0002 15C8.18074 15 6.52636 14.5029 5.03704 13.5088C3.54772 12.5147 2.44569 11.2062 1.73096 9.58334C2.05467 8.84723 2.48148 8.15787 3.01139 7.51524C3.54131 6.87262 4.10702 6.33335 4.70852 5.89745L2.38479 3.56412L2.97454 2.97437L17.0258 17.0257L16.4361 17.6154ZM5.29825 6.4872C4.82069 6.82694 4.33245 7.27351 3.83352 7.82693C3.33459 8.38036 2.9457 8.96583 2.66685 9.58334C3.3613 10.9861 4.35783 12.1007 5.65644 12.9271C6.95505 13.7535 8.40297 14.1667 10.0002 14.1667C10.481 14.1667 10.9655 14.1199 11.4537 14.0264C11.942 13.933 12.3089 13.8387 12.5547 13.7436L11.1957 12.375C11.0643 12.4487 10.8811 12.5094 10.646 12.5569C10.411 12.6044 10.1957 12.6282 10.0002 12.6282C9.15083 12.6282 8.43101 12.3331 7.84073 11.7428C7.25045 11.1525 6.95531 10.4327 6.95531 9.58334C6.95531 9.39851 6.97908 9.19125 7.02662 8.96155C7.07417 8.73184 7.1348 8.5406 7.20852 8.38782L5.29825 6.4872Z" fill="#303030"/>
</g>
</svg>
