<svg width="24" height="25" viewBox="0 0 24 25" fill="none" xmlns="http://www.w3.org/2000/svg">
<path opacity="0.5" d="M10.4 20.5004C7.38301 20.5004 5.87452 20.5004 4.93726 19.5631C4 18.6259 4 17.9174 4 14.9004" stroke="#303030" stroke-width="1.5" stroke-linecap="round"/>
<path opacity="0.5" d="M20 14.9004C20 17.9174 20 18.6259 19.0627 19.5631C18.1255 20.5004 16.617 20.5004 13.6 20.5004" stroke="#303030" stroke-width="1.5" stroke-linecap="round"/>
<path opacity="0.5" d="M13.6 4.5C16.617 4.5 18.1255 4.5 19.0627 5.43726C20 6.37452 20 7.08301 20 10.1" stroke="#303030" stroke-width="1.5" stroke-linecap="round"/>
<path opacity="0.5" d="M10.4 4.5C7.38301 4.5 5.87452 4.5 4.93726 5.43726C4 6.37452 4 7.08301 4 10.1" stroke="#303030" stroke-width="1.5" stroke-linecap="round"/>
<path d="M7.11394 14.1478C6.63798 13.5957 6.4 13.3197 6.4 12.5C6.4 11.6803 6.63798 11.4043 7.11394 10.8522C8.0643 9.74978 9.65814 8.5 12 8.5C14.3419 8.5 15.9357 9.74978 16.8861 10.8522C17.362 11.4043 17.6 11.6803 17.6 12.5C17.6 13.3197 17.362 13.5957 16.8861 14.1478C15.9357 15.2502 14.3419 16.5 12 16.5C9.65814 16.5 8.0643 15.2502 7.11394 14.1478Z" stroke="#303030" stroke-width="1.5"/>
<circle cx="12" cy="12.5004" r="1.6" stroke="#303030" stroke-width="1.5"/>
<rect x="17.6918" y="7.46582" width="15.5184" height="1.1" rx="0.55" transform="rotate(135 17.6918 7.46582)" fill="#303030" stroke="#EFEFEF" stroke-width="0.3"/>
</svg>
