<svg width="17" height="16" viewBox="0 0 17 16" fill="none" xmlns="http://www.w3.org/2000/svg">
<path fill-rule="evenodd" clip-rule="evenodd" d="M0.91536 4.65819C0.5 5.41702 0.5 6.33239 0.5 8.16314V9.37996C0.5 12.5007 0.5 14.061 1.43726 15.0305C2.37452 16 3.88301 16 6.9 16H10.1C13.117 16 14.6255 16 15.5627 15.0305C16.5 14.061 16.5 12.5007 16.5 9.37996V8.16314C16.5 6.33239 16.5 5.41702 16.0846 4.65819C15.6693 3.89937 14.9104 3.42841 13.3928 2.4865L11.7928 1.4935C10.1885 0.497832 9.38635 0 8.5 0C7.61365 0 6.81151 0.497832 5.20723 1.4935L3.60723 2.4865C2.08956 3.42841 1.33072 3.89937 0.91536 4.65819ZM6.45729 10.718C6.19108 10.5207 5.81531 10.5765 5.61798 10.8427C5.42065 11.1089 5.4765 11.4847 5.74271 11.682C6.52064 12.2586 7.47202 12.6 8.5 12.6C9.52798 12.6 10.4794 12.2586 11.2573 11.682C11.5235 11.4847 11.5793 11.1089 11.382 10.8427C11.1847 10.5765 10.8089 10.5207 10.5427 10.718C9.96004 11.1499 9.25672 11.4 8.5 11.4C7.74328 11.4 7.03996 11.1499 6.45729 10.718Z" fill="#958E8E"/>
</svg>
