<svg width="49" height="48" viewBox="0 0 49 48" fill="none" xmlns="http://www.w3.org/2000/svg">
<g clip-path="url(#clip0_2477_7932)">
<path d="M24.5116 0.364258C14.6421 0.364258 11.7557 0.374439 11.1946 0.420983C9.1692 0.589342 7.90887 0.908241 6.53582 1.59186C5.47767 2.1173 4.64315 2.72637 3.81954 3.58016C2.31958 5.1372 1.41052 7.05278 1.08144 9.3298C0.921445 10.4352 0.874901 10.6607 0.865447 16.307C0.86181 18.1892 0.865447 20.6662 0.865447 23.9886C0.865447 33.8502 0.876355 36.7337 0.923627 37.2937C1.08726 39.2645 1.39634 40.5045 2.05087 41.8608C3.30174 44.4571 5.69075 46.4061 8.50522 47.1334C9.47973 47.3843 10.5561 47.5225 11.9378 47.5879C12.5233 47.6134 18.4904 47.6316 24.4611 47.6316C30.4318 47.6316 36.4025 47.6243 36.9734 47.5952C38.5734 47.5199 39.5025 47.3952 40.5297 47.1297C43.3623 46.3989 45.7077 44.4789 46.984 41.8463C47.6258 40.5227 47.9513 39.2354 48.0986 37.3675C48.1306 36.9602 48.144 30.467 48.144 23.9825C48.144 17.4968 48.1295 11.0156 48.0975 10.6083C47.9484 8.71019 47.6229 7.43386 46.9604 6.08481C46.4168 4.98048 45.8132 4.15578 44.9368 3.31253C43.3729 1.81876 41.4602 0.909696 39.181 0.580979C38.0767 0.421347 37.8567 0.374076 32.206 0.364258H24.5116Z" fill="url(#paint0_radial_2477_7932)"/>
<path d="M24.5116 0.364258C14.6421 0.364258 11.7557 0.374439 11.1946 0.420983C9.1692 0.589342 7.90887 0.908241 6.53582 1.59186C5.47767 2.1173 4.64315 2.72637 3.81954 3.58016C2.31958 5.1372 1.41052 7.05278 1.08144 9.3298C0.921445 10.4352 0.874901 10.6607 0.865447 16.307C0.86181 18.1892 0.865447 20.6662 0.865447 23.9886C0.865447 33.8502 0.876355 36.7337 0.923627 37.2937C1.08726 39.2645 1.39634 40.5045 2.05087 41.8608C3.30174 44.4571 5.69075 46.4061 8.50522 47.1334C9.47973 47.3843 10.5561 47.5225 11.9378 47.5879C12.5233 47.6134 18.4904 47.6316 24.4611 47.6316C30.4318 47.6316 36.4025 47.6243 36.9734 47.5952C38.5734 47.5199 39.5025 47.3952 40.5297 47.1297C43.3623 46.3989 45.7077 44.4789 46.984 41.8463C47.6258 40.5227 47.9513 39.2354 48.0986 37.3675C48.1306 36.9602 48.144 30.467 48.144 23.9825C48.144 17.4968 48.1295 11.0156 48.0975 10.6083C47.9484 8.71019 47.6229 7.43386 46.9604 6.08481C46.4168 4.98048 45.8132 4.15578 44.9368 3.31253C43.3729 1.81876 41.4602 0.909696 39.181 0.580979C38.0767 0.421347 37.8567 0.374076 32.206 0.364258H24.5116Z" fill="url(#paint1_radial_2477_7932)"/>
<path d="M24.5007 6.5459C19.7605 6.5459 19.1656 6.56663 17.3038 6.65135C15.4457 6.73644 14.1774 7.03061 13.0676 7.46223C11.9196 7.90804 10.9458 8.50438 9.97568 9.4749C9.0048 10.4451 8.40846 11.4188 7.9612 12.5664C7.52848 13.6766 7.23395 14.9453 7.15031 16.8027C7.06704 18.6644 7.04523 19.2597 7.04523 23.9999C7.04523 28.7401 7.06632 29.3332 7.15068 31.195C7.23613 33.0531 7.5303 34.3214 7.96156 35.4312C8.40773 36.5792 9.00408 37.553 9.97459 38.5231C10.9444 39.494 11.9182 40.0918 13.0654 40.5376C14.1759 40.9692 15.4446 41.2634 17.3024 41.3485C19.1641 41.4332 19.7587 41.4539 24.4985 41.4539C29.2391 41.4539 29.8322 41.4332 31.6939 41.3485C33.5521 41.2634 34.8218 40.9692 35.9324 40.5376C37.08 40.0918 38.0523 39.494 39.0221 38.5231C39.993 37.553 40.5893 36.5792 41.0366 35.4316C41.4656 34.3214 41.7602 33.0527 41.8474 31.1953C41.9311 29.3336 41.9529 28.7401 41.9529 23.9999C41.9529 19.2597 41.9311 18.6648 41.8474 16.803C41.7602 14.9449 41.4656 13.6766 41.0366 12.5668C40.5893 11.4188 39.993 10.4451 39.0221 9.4749C38.0512 8.50402 37.0803 7.90768 35.9313 7.46223C34.8186 7.03061 33.5495 6.73644 31.6914 6.65135C29.8296 6.56663 29.2369 6.5459 24.4952 6.5459H24.5007ZM22.9349 9.69126C23.3996 9.69053 23.9182 9.69126 24.5007 9.69126C29.1609 9.69126 29.7133 9.70798 31.5536 9.79162C33.2553 9.86943 34.1789 10.1538 34.7942 10.3927C35.6087 10.709 36.1894 11.0872 36.8 11.6981C37.4109 12.309 37.789 12.8908 38.1061 13.7053C38.345 14.3198 38.6297 15.2435 38.7072 16.9452C38.7908 18.7852 38.809 19.3379 38.809 23.9959C38.809 28.654 38.7908 29.2067 38.7072 31.0466C38.6294 32.7484 38.345 33.672 38.1061 34.2865C37.7897 35.101 37.4109 35.681 36.8 36.2915C36.1891 36.9024 35.6091 37.2806 34.7942 37.597C34.1797 37.837 33.2553 38.1206 31.5536 38.1984C29.7136 38.282 29.1609 38.3002 24.5007 38.3002C19.8401 38.3002 19.2878 38.282 17.4478 38.1984C15.7461 38.1199 14.8224 37.8355 14.2068 37.5966C13.3923 37.2802 12.8105 36.9021 12.1996 36.2912C11.5887 35.6803 11.2106 35.0999 10.8935 34.2851C10.6546 33.6705 10.3699 32.7469 10.2924 31.0452C10.2088 29.2052 10.192 28.6525 10.192 23.9916C10.192 19.3306 10.2088 18.7808 10.2924 16.9409C10.3702 15.2391 10.6546 14.3155 10.8935 13.7002C11.2098 12.8857 11.5887 12.3039 12.1996 11.693C12.8105 11.0821 13.3923 10.704 14.2068 10.3869C14.8221 10.1469 15.7461 9.86325 17.4478 9.78507C19.058 9.71235 19.6819 9.69053 22.9349 9.68689V9.69126ZM33.8175 12.5894C32.6612 12.5894 31.723 13.5264 31.723 14.6831C31.723 15.8394 32.6612 16.7776 33.8175 16.7776C34.9738 16.7776 35.912 15.8394 35.912 14.6831C35.912 13.5268 34.9738 12.5886 33.8175 12.5886V12.5894ZM24.5007 15.0366C19.5507 15.0366 15.5373 19.0499 15.5373 23.9999C15.5373 28.9499 19.5507 32.9615 24.5007 32.9615C29.4507 32.9615 33.4626 28.9499 33.4626 23.9999C33.4626 19.0499 29.4507 15.0366 24.5007 15.0366ZM24.5007 18.1819C27.7137 18.1819 30.3187 20.7866 30.3187 23.9999C30.3187 27.2129 27.7137 29.8179 24.5007 29.8179C21.2873 29.8179 18.6827 27.2129 18.6827 23.9999C18.6827 20.7866 21.2873 18.1819 24.5007 18.1819Z" fill="white"/>
</g>
<defs>
<radialGradient id="paint0_radial_2477_7932" cx="0" cy="0" r="1" gradientUnits="userSpaceOnUse" gradientTransform="translate(13.4227 51.2721) rotate(-90) scale(46.8454 43.5818)">
<stop stop-color="#FFDD55"/>
<stop offset="0.1" stop-color="#FFDD55"/>
<stop offset="0.5" stop-color="#FF543E"/>
<stop offset="1" stop-color="#C837AB"/>
</radialGradient>
<radialGradient id="paint1_radial_2477_7932" cx="0" cy="0" r="1" gradientUnits="userSpaceOnUse" gradientTransform="translate(-7.05585 3.76931) rotate(78.6776) scale(20.9403 86.3385)">
<stop stop-color="#3771C8"/>
<stop offset="0.128" stop-color="#3771C8"/>
<stop offset="1" stop-color="#6600FF" stop-opacity="0"/>
</radialGradient>
<clipPath id="clip0_2477_7932">
<rect width="48" height="47.9985" fill="white" transform="translate(0.5 0.000732422)"/>
</clipPath>
</defs>
</svg>
