<svg width="11" height="11" viewBox="0 0 11 11" fill="none" xmlns="http://www.w3.org/2000/svg">
<path d="M9.95458 6.13052H6.37539V9.70971C6.37539 10.1034 6.05326 10.4255 5.65955 10.4255C5.26584 10.4255 4.94371 10.1034 4.94371 9.70971V6.13052H1.36452C0.970809 6.13052 0.648682 5.80839 0.648682 5.41468C0.648682 5.02097 0.970809 4.69884 1.36452 4.69884H4.94371V1.11965C4.94371 0.725936 5.26584 0.403809 5.65955 0.403809C6.05326 0.403809 6.37539 0.725936 6.37539 1.11965V4.69884H9.95458C10.3483 4.69884 10.6704 5.02097 10.6704 5.41468C10.6704 5.80839 10.3483 6.13052 9.95458 6.13052Z" fill="#4690B5"/>
</svg>
