<svg width="21" height="21" viewBox="0 0 21 21" fill="none" xmlns="http://www.w3.org/2000/svg">
<path d="M3.43226 0.32373H17.1353C17.974 0.32373 18.7783 0.656894 19.3713 1.24993C19.9644 1.84296 20.2975 2.64729 20.2975 3.48597V17.189C20.2975 18.0277 19.9644 18.832 19.3713 19.425C18.7783 20.0181 17.974 20.3512 17.1353 20.3512H3.43226C2.59358 20.3512 1.78925 20.0181 1.19622 19.425C0.603183 18.832 0.27002 18.0277 0.27002 17.189V3.48597C0.27002 2.64729 0.603183 1.84296 1.19622 1.24993C1.78925 0.656894 2.59358 0.32373 3.43226 0.32373ZM3.43226 1.37781C2.87314 1.37781 2.33692 1.59992 1.94156 1.99527C1.54621 2.39063 1.3241 2.92685 1.3241 3.48597V6.64821H6.59449V1.37781H3.43226ZM1.3241 17.189C1.3241 17.7481 1.54621 18.2843 1.94156 18.6797C2.33692 19.075 2.87314 19.2972 3.43226 19.2972H6.59449V14.0268H1.3241V17.189ZM6.59449 7.70228H1.3241V12.9727H6.59449V7.70228ZM17.1353 19.2972C17.6944 19.2972 18.2306 19.075 18.626 18.6797C19.0213 18.2843 19.2434 17.7481 19.2434 17.189V14.0268H13.973V19.2972H17.1353ZM19.2434 7.70228H13.973V12.9727H19.2434V7.70228ZM19.2434 3.48597C19.2434 2.92685 19.0213 2.39063 18.626 1.99527C18.2306 1.59992 17.6944 1.37781 17.1353 1.37781H13.973V6.64821H19.2434V3.48597ZM7.64857 1.37781V6.64821H12.919V1.37781H7.64857ZM7.64857 19.2972H12.919V14.0268H7.64857V19.2972ZM12.919 7.70228H7.64857V12.9727H12.919V7.70228Z" fill="#958E8E"/>
</svg>
