<svg width="24" height="25" viewBox="0 0 24 25" fill="none" xmlns="http://www.w3.org/2000/svg">
<circle cx="9.60006" cy="10.1" r="1.6" stroke="#303030" stroke-width="1.5875"/>
<path d="M12.8 14.8998C12.8 15.7835 12.8 16.4998 9.60001 16.4998C6.40001 16.4998 6.40001 15.7835 6.40001 14.8998C6.40001 14.0161 7.8327 13.2998 9.60001 13.2998C11.3673 13.2998 12.8 14.0161 12.8 14.8998Z" stroke="#303030" stroke-width="1.5875"/>
<path opacity="0.5" d="M3.99994 12.4996C3.99994 9.48262 3.99994 7.97413 4.9372 7.03687C5.87446 6.09961 7.38295 6.09961 10.3999 6.09961H13.5999C16.6169 6.09961 18.1254 6.09961 19.0627 7.03687C19.9999 7.97413 19.9999 9.48262 19.9999 12.4996C19.9999 15.5166 19.9999 17.0251 19.0627 17.9624C18.1254 18.8996 16.6169 18.8996 13.5999 18.8996H10.3999C7.38295 18.8996 5.87446 18.8996 4.9372 17.9624C3.99994 17.0251 3.99994 15.5166 3.99994 12.4996Z" stroke="#303030" stroke-width="1.5875"/>
<path d="M17.6 12.5H14.4" stroke="#303030" stroke-width="1.5875" stroke-linecap="round"/>
<path d="M17.6 10.1006H13.6" stroke="#303030" stroke-width="1.5875" stroke-linecap="round"/>
<path opacity="0.9" d="M17.6 14.8994H15.2" stroke="#303030" stroke-width="1.5875" stroke-linecap="round"/>
</svg>
