<svg width="22" height="22" viewBox="0 0 22 22" fill="none" xmlns="http://www.w3.org/2000/svg">
<path fill-rule="evenodd" clip-rule="evenodd" d="M11.1422 0.320313H11.2545C13.5131 0.3203 15.2832 0.32029 16.6643 0.505971C18.0779 0.696027 19.1934 1.09263 20.0689 1.96817C20.9444 2.8437 21.341 3.95916 21.5311 5.37278C21.7168 6.75386 21.7168 8.52392 21.7168 10.7826V10.8949C21.7168 13.1535 21.7168 14.9236 21.5311 16.3047C21.341 17.7183 20.9444 18.8337 20.0689 19.7093C19.1934 20.5848 18.0779 20.9814 16.6643 21.1715C15.2832 21.3572 13.5131 21.3571 11.2545 21.3571H11.1422C8.88354 21.3571 7.11348 21.3572 5.7324 21.1715C4.31878 20.9814 3.20332 20.5848 2.32779 19.7093C1.45225 18.8337 1.05565 17.7183 0.865591 16.3047C0.679909 14.9236 0.679919 13.1535 0.679932 10.8949V10.7826C0.679919 8.52392 0.679909 6.75386 0.865591 5.37278C1.05565 3.95916 1.45225 2.8437 2.32779 1.96817C3.20332 1.09263 4.31878 0.696027 5.7324 0.505971C7.11347 0.32029 8.88354 0.3203 11.1422 0.320313ZM5.57222 2.01481C4.53032 2.19411 3.86803 2.50354 3.3656 3.00598C2.86316 3.50841 2.55373 4.17071 2.37443 5.2126H5.57222V2.01481ZM7.0399 1.85646V19.821C8.14149 19.8886 9.4941 19.8895 11.1983 19.8895C12.9026 19.8895 14.2552 19.8886 15.3568 19.821V1.85646C14.2552 1.78883 12.9026 1.788 11.1983 1.788C9.4941 1.788 8.14149 1.78883 7.0399 1.85646ZM16.8245 2.01481V5.2126H20.0223C19.843 4.17071 19.5335 3.50841 19.0311 3.00598C18.5287 2.50354 17.8664 2.19411 16.8245 2.01481ZM20.1806 6.68028H16.8245V10.1049H20.2488C20.2474 8.73964 20.2382 7.61885 20.1806 6.68028ZM20.2488 11.5726H16.8245V14.9972H20.1806C20.2382 14.0586 20.2474 12.9378 20.2488 11.5726ZM20.0223 16.4649H16.8245V19.6626C17.8664 19.4833 18.5287 19.1739 19.0311 18.6715C19.5335 18.169 19.843 17.5067 20.0223 16.4649ZM5.57222 19.6626V16.4649H2.37443C2.55373 17.5067 2.86316 18.169 3.3656 18.6715C3.86803 19.1739 4.53032 19.4833 5.57222 19.6626ZM2.21608 14.9972H5.57222V11.5726H2.14789C2.14933 12.9378 2.15846 14.0586 2.21608 14.9972ZM2.14789 10.1049H5.57222V6.68028H2.21608C2.15846 7.61885 2.14933 8.73964 2.14789 10.1049ZM11.9609 8.63536C11.9772 8.64633 11.9936 8.65734 12.01 8.66838L12.0553 8.69884C12.5345 9.02085 12.9629 9.30865 13.2638 9.58591C13.5906 9.887 13.8891 10.2847 13.8891 10.8387C13.8891 11.3928 13.5906 11.7905 13.2638 12.0915C12.9629 12.3688 12.5346 12.6566 12.0554 12.9786L12.01 13.0091C11.9936 13.0201 11.9772 13.0311 11.9609 13.0421C11.478 13.3667 11.0432 13.659 10.6779 13.828C10.294 14.0055 9.74966 14.157 9.22814 13.8119C8.74902 13.4948 8.61676 12.965 8.56248 12.5407C8.50752 12.1111 8.50755 11.5467 8.50759 10.889V10.7885C8.50755 10.1308 8.50752 9.56635 8.56248 9.13672C8.61676 8.7124 8.74902 8.18263 9.22814 7.86556C9.74966 7.52043 10.294 7.67192 10.6779 7.84945C11.0432 8.01842 11.478 8.31073 11.9609 8.63536ZM10.0431 9.17307C10.0491 9.17574 10.0553 9.17857 10.0618 9.18155C10.3073 9.29511 10.6433 9.51817 11.1913 9.8865C11.7302 10.2487 12.0616 10.4739 12.2694 10.6654C12.3663 10.7546 12.4038 10.8082 12.4172 10.8323C12.4186 10.8349 12.4197 10.837 12.4206 10.8387C12.4197 10.8404 12.4186 10.8425 12.4172 10.8452C12.4038 10.8692 12.3663 10.9228 12.2694 11.0121C12.0616 11.2035 11.7302 11.4287 11.1913 11.7909C10.6433 12.1593 10.3073 12.3823 10.0618 12.4959C10.0553 12.4989 10.0491 12.5017 10.0431 12.5044C10.0349 12.4659 10.0263 12.4167 10.0183 12.3545C9.97674 12.0296 9.97527 11.5609 9.97527 10.8387C9.97527 10.1166 9.97674 9.64789 10.0183 9.32296C10.0263 9.26078 10.0349 9.21159 10.0431 9.17307Z" fill="#958E8E"/>
</svg>
