<svg width="20" height="20" viewBox="0 0 20 20" fill="none" xmlns="http://www.w3.org/2000/svg">
<path opacity="0.5" d="M8.72771 16.5395C6.27996 16.5395 5.0561 16.5395 4.29569 15.779C3.53528 15.0186 3.53528 14.4438 3.53528 11.9961" stroke="#303030" stroke-linecap="round"/>
<path opacity="0.5" d="M16.5162 11.9961C16.5162 14.4438 16.5162 15.0186 15.7559 15.779C14.9954 16.5395 13.7716 16.5395 11.3239 16.5395" stroke="#303030" stroke-linecap="round"/>
<path opacity="0.5" d="M11.3239 3.55835C13.7716 3.55835 14.9954 3.55835 15.7559 4.31876C16.5162 5.07916 16.5162 5.65399 16.5162 8.1017" stroke="#303030" stroke-linecap="round"/>
<path opacity="0.5" d="M8.72771 3.55835C6.27996 3.55835 5.0561 3.55835 4.29569 4.31876C3.53528 5.07916 3.53528 5.65399 3.53528 8.1017" stroke="#303030" stroke-linecap="round"/>
<path d="M10.6463 11.5974H9.69812L9.441 6.15454H10.9035L10.6463 11.5974ZM9.37671 13.3223C9.37671 13.0295 9.45168 12.8241 9.60168 12.7062C9.75525 12.5848 9.94276 12.5242 10.1642 12.5242C10.382 12.5242 10.5677 12.5848 10.7213 12.7062C10.8749 12.8241 10.9517 13.0295 10.9517 13.3223C10.9517 13.6081 10.8749 13.8152 10.7213 13.9438C10.5677 14.0687 10.382 14.1313 10.1642 14.1313C9.94276 14.1313 9.75525 14.0687 9.60168 13.9438C9.45168 13.8152 9.37671 13.6081 9.37671 13.3223Z" fill="#303030"/>
</svg>
