<svg width="16" height="16" viewBox="0 0 16 16" fill="none" xmlns="http://www.w3.org/2000/svg">
<mask id="mask0_2469_7614" style="mask-type:alpha" maskUnits="userSpaceOnUse" x="0" y="0" width="16" height="16">
<rect width="16" height="16" fill="#D9D9D9"/>
</mask>
<g mask="url(#mask0_2469_7614)">
<path d="M8.00033 10.9486C8.11657 10.9486 8.21401 10.9092 8.29264 10.8306C8.37126 10.752 8.41058 10.6545 8.41058 10.5383C8.41058 10.4221 8.37126 10.3246 8.29264 10.246C8.21401 10.1674 8.11657 10.128 8.00033 10.128C7.88408 10.128 7.78664 10.1674 7.70801 10.246C7.62939 10.3246 7.59008 10.4221 7.59008 10.5383C7.59008 10.6545 7.62939 10.752 7.70801 10.8306C7.78664 10.9092 7.88408 10.9486 8.00033 10.9486ZM7.66699 8.97419H8.33366V4.92292H7.66699V8.97419ZM5.78238 13.3332L2.66699 10.2238V5.78189L5.77634 2.6665H10.2183L13.3337 5.77585V10.2178L10.2243 13.3332H5.78238ZM6.06699 12.6665H9.93366L12.667 9.93317V6.0665L9.93366 3.33317H6.06699L3.33366 6.0665V9.93317L6.06699 12.6665Z" fill="#303030"/>
</g>
</svg>
