<svg width="14" height="20" viewBox="0 0 14 20" fill="none" xmlns="http://www.w3.org/2000/svg">
<path d="M0 19.0416V2.84286C0 2.3059 0.179861 1.85756 0.539583 1.49784C0.899306 1.13811 1.34765 0.958252 1.8846 0.958252H12.1154C12.6524 0.958252 13.1007 1.13811 13.4604 1.49784C13.8201 1.85756 14 2.3059 14 2.84286V19.0416L7 16.0352L0 19.0416ZM1.16667 17.2332L7 14.7249L12.8333 17.2332V2.84286C12.8333 2.66338 12.7586 2.49886 12.609 2.34927C12.4594 2.1997 12.2949 2.12492 12.1154 2.12492H1.8846C1.70513 2.12492 1.5406 2.1997 1.39102 2.34927C1.24145 2.49886 1.16667 2.66338 1.16667 2.84286V17.2332Z" fill="#303030"/>
</svg>
