<svg width="49" height="48" viewBox="0 0 49 48" fill="none" xmlns="http://www.w3.org/2000/svg">
<g clip-path="url(#clip0_2477_7938)">
<path d="M41.3 0H7.7C3.72355 0 0.5 3.22355 0.5 7.2V40.8C0.5 44.7765 3.72355 48 7.7 48H41.3C45.2765 48 48.5 44.7765 48.5 40.8V7.2C48.5 3.22355 45.2765 0 41.3 0Z" fill="#FFFC00"/>
<path d="M19.5312 38.8125C17.8438 37.5938 16.5312 36.9375 13.3438 37.5C12.875 37.5938 12.0312 37.875 11.9375 37.0313C11.75 36.375 11.75 35.3438 11.2812 35.25C8.375 34.875 7.34375 34.3125 6.875 33.75C6.6875 33.5625 6.59375 33.0938 6.96875 33C11.9375 32.0625 14.2812 27.2813 14.75 26.3438C15.3125 24.9375 14.375 24.0938 12.5938 23.5313C11.75 23.25 10.3438 22.875 10.3438 21.9375C10.3438 21.4688 10.8125 21.1875 11.2812 21C11.6562 20.9063 12.0312 20.8125 12.4062 21C13.5312 21.4688 14.5625 21.6563 15.125 21.1875C15.125 18.6563 14.4688 15.4688 15.5 12.8438C16.7188 9.9375 19.7188 7.3125 24.5 7.3125C29.2812 7.3125 32.2812 9.9375 33.5 12.8438C34.5312 15.4688 33.875 18.6563 33.875 21.1875C34.4375 21.6563 35.4688 21.4688 36.5938 21C36.9688 20.8125 37.3438 20.9063 37.7188 21C38.1875 21.1875 38.6562 21.4688 38.6562 21.9375C38.6562 22.875 37.25 23.25 36.4062 23.5313C34.625 24.0938 33.6875 24.9375 34.25 26.3438C34.7188 27.2813 37.0625 32.0625 42.0312 33C42.4062 33.0938 42.3125 33.5625 42.125 33.75C41.6562 34.3125 40.625 34.875 37.7188 35.25C37.25 35.3438 37.25 36.375 37.0625 37.0313C36.9688 37.875 36.125 37.5938 35.6562 37.5C32.4688 36.9375 31.1562 37.5938 29.4688 38.8125C28.0878 40.0079 26.3264 40.6726 24.5 40.6875C22.5312 40.7813 20.9375 39.9375 19.5312 38.8125Z" fill="white" stroke="black" stroke-width="0.615234"/>
</g>
<defs>
<clipPath id="clip0_2477_7938">
<rect width="48" height="48" fill="white" transform="translate(0.5)"/>
</clipPath>
</defs>
</svg>
