<svg width="89" height="91" viewBox="0 0 89 91" fill="none" xmlns="http://www.w3.org/2000/svg">
<path d="M44.5001 47C50.6664 47 56.5801 44.5505 60.9403 40.1902C65.3005 35.83 67.7501 29.9163 67.7501 23.75C67.7501 17.5837 65.3005 11.67 60.9403 7.30977C56.5801 2.94955 50.6664 0.5 44.5001 0.5C38.3338 0.5 32.4201 2.94955 28.0598 7.30977C23.6996 11.67 21.2501 17.5837 21.2501 23.75C21.2501 29.9163 23.6996 35.83 28.0598 40.1902C32.4201 44.5505 38.3338 47 44.5001 47ZM81.1963 93.5C85.9858 93.5 89.6671 89.1523 87.9543 84.6728C84.5945 75.8693 78.6403 68.2939 70.8799 62.9492C63.1195 57.6046 53.919 54.7429 44.4962 54.7429C35.0734 54.7429 25.8728 57.6046 18.1125 62.9492C10.3521 68.2939 4.39786 75.8693 1.03807 84.6728C-0.666933 89.1523 3.00657 93.5 7.79607 93.5H81.1963Z" fill="white"/>
<path d="M44.5001 47C50.6664 47 56.5801 44.5505 60.9403 40.1902C65.3005 35.83 67.7501 29.9163 67.7501 23.75C67.7501 17.5837 65.3005 11.67 60.9403 7.30977C56.5801 2.94955 50.6664 0.5 44.5001 0.5C38.3338 0.5 32.4201 2.94955 28.0598 7.30977C23.6996 11.67 21.2501 17.5837 21.2501 23.75C21.2501 29.9163 23.6996 35.83 28.0598 40.1902C32.4201 44.5505 38.3338 47 44.5001 47ZM81.1963 93.5C85.9858 93.5 89.6671 89.1523 87.9543 84.6728C84.5945 75.8693 78.6403 68.2939 70.8799 62.9492C63.1195 57.6046 53.919 54.7429 44.4962 54.7429C35.0734 54.7429 25.8728 57.6046 18.1125 62.9492C10.3521 68.2939 4.39786 75.8693 1.03807 84.6728C-0.666933 89.1523 3.00657 93.5 7.79607 93.5H81.1963Z" fill="#478FB5"/>
</svg>
