<svg width="110" height="111" viewBox="0 0 110 111" fill="none" xmlns="http://www.w3.org/2000/svg">
<g clip-path="url(#clip0_2433_6838)">
<rect x="0.5" width="109" height="111" rx="54.5" fill="#478EB5" fill-opacity="0.15"/>
<path d="M55.5001 67C61.6664 67 67.5801 64.5505 71.9403 60.1902C76.3005 55.83 78.7501 49.9163 78.7501 43.75C78.7501 37.5837 76.3005 31.67 71.9403 27.3098C67.5801 22.9495 61.6664 20.5 55.5001 20.5C49.3338 20.5 43.4201 22.9495 39.0598 27.3098C34.6996 31.67 32.2501 37.5837 32.2501 43.75C32.2501 49.9163 34.6996 55.83 39.0598 60.1902C43.4201 64.5505 49.3338 67 55.5001 67ZM92.1963 113.5C96.9858 113.5 100.667 109.152 98.9543 104.673C95.5945 95.8693 89.6403 88.2939 81.8799 82.9492C74.1195 77.6046 64.919 74.7429 55.4962 74.7429C46.0734 74.7429 36.8728 77.6046 29.1125 82.9492C21.3521 88.2939 15.3979 95.8693 12.0381 104.673C10.3331 109.152 14.0066 113.5 18.7961 113.5H92.1963Z" fill="white"/>
<path d="M55.5001 67C61.6664 67 67.5801 64.5505 71.9403 60.1902C76.3005 55.83 78.7501 49.9163 78.7501 43.75C78.7501 37.5837 76.3005 31.67 71.9403 27.3098C67.5801 22.9495 61.6664 20.5 55.5001 20.5C49.3338 20.5 43.4201 22.9495 39.0598 27.3098C34.6996 31.67 32.2501 37.5837 32.2501 43.75C32.2501 49.9163 34.6996 55.83 39.0598 60.1902C43.4201 64.5505 49.3338 67 55.5001 67ZM92.1963 113.5C96.9858 113.5 100.667 109.152 98.9543 104.673C95.5945 95.8693 89.6403 88.2939 81.8799 82.9492C74.1195 77.6046 64.919 74.7429 55.4962 74.7429C46.0734 74.7429 36.8728 77.6046 29.1125 82.9492C21.3521 88.2939 15.3979 95.8693 12.0381 104.673C10.3331 109.152 14.0066 113.5 18.7961 113.5H92.1963Z" fill="#478FB5"/>
</g>
<defs>
<clipPath id="clip0_2433_6838">
<rect x="0.5" width="109" height="111" rx="54.5" fill="white"/>
</clipPath>
</defs>
</svg>
