<svg width="110" height="106" viewBox="0 0 110 106" fill="none" xmlns="http://www.w3.org/2000/svg">
<path d="M55.5001 62C61.6664 62 67.5801 59.5505 71.9403 55.1902C76.3005 50.83 78.7501 44.9163 78.7501 38.75C78.7501 32.5837 76.3005 26.67 71.9403 22.3098C67.5801 17.9495 61.6664 15.5 55.5001 15.5C49.3338 15.5 43.4201 17.9495 39.0598 22.3098C34.6996 26.67 32.2501 32.5837 32.2501 38.75C32.2501 44.9163 34.6996 50.83 39.0598 55.1902C43.4201 59.5505 49.3338 62 55.5001 62ZM92.1963 108.5C96.9858 108.5 100.667 104.152 98.9543 99.6728C95.5945 90.8693 89.6403 83.2939 81.8799 77.9492C74.1195 72.6046 64.919 69.7429 55.4962 69.7429C46.0734 69.7429 36.8728 72.6046 29.1125 77.9492C21.3521 83.2939 15.3979 90.8693 12.0381 99.6728C10.3331 104.152 14.0066 108.5 18.7961 108.5H92.1963Z" fill="white"/>
<path d="M55.5001 62C61.6664 62 67.5801 59.5505 71.9403 55.1902C76.3005 50.83 78.7501 44.9163 78.7501 38.75C78.7501 32.5837 76.3005 26.67 71.9403 22.3098C67.5801 17.9495 61.6664 15.5 55.5001 15.5C49.3338 15.5 43.4201 17.9495 39.0598 22.3098C34.6996 26.67 32.2501 32.5837 32.2501 38.75C32.2501 44.9163 34.6996 50.83 39.0598 55.1902C43.4201 59.5505 49.3338 62 55.5001 62ZM92.1963 108.5C96.9858 108.5 100.667 104.152 98.9543 99.6728C95.5945 90.8693 89.6403 83.2939 81.8799 77.9492C74.1195 72.6046 64.919 69.7429 55.4962 69.7429C46.0734 69.7429 36.8728 72.6046 29.1125 77.9492C21.3521 83.2939 15.3979 90.8693 12.0381 99.6728C10.3331 104.152 14.0066 108.5 18.7961 108.5H92.1963Z" fill="#478FB5"/>
</svg>
