<svg width="49" height="48" viewBox="0 0 49 48" fill="none" xmlns="http://www.w3.org/2000/svg">
<g clip-path="url(#clip0_2477_7921)">
<path d="M1.52448 23.7128C1.52336 27.7458 2.58536 31.6836 4.60473 35.1545L1.33136 47.0135L13.5624 43.8313C16.9453 45.6587 20.7356 46.6162 24.5874 46.6165H24.5975C37.3128 46.6165 47.6634 36.3499 47.6688 23.7309C47.6712 17.6161 45.2735 11.8661 40.9171 7.54018C36.5615 3.2146 30.7687 0.83116 24.5965 0.828369C11.8797 0.828369 1.52992 11.0944 1.52467 23.7128" fill="url(#paint0_linear_2477_7921)"/>
<path d="M0.700625 23.7053C0.699313 27.8834 1.79937 31.962 3.89075 35.5572L0.5 47.8413L13.1696 44.5451C16.6604 46.4337 20.5908 47.4294 24.5902 47.4309H24.6005C37.772 47.4309 48.4944 36.795 48.5 23.7243C48.5023 17.3898 46.0182 11.4331 41.5062 6.95219C36.9937 2.47181 30.9937 0.00260465 24.6005 0C11.4267 0 0.705875 10.6344 0.700625 23.7053ZM8.24581 34.938L7.77275 34.1929C5.78412 31.0554 4.7345 27.4298 4.736 23.7068C4.74012 12.8426 13.6509 4.00372 24.608 4.00372C29.9143 4.00595 34.901 6.05842 38.6517 9.78233C42.4023 13.5066 44.4661 18.4573 44.4648 23.7228C44.4599 34.587 35.549 43.427 24.6005 43.427H24.5926C21.0277 43.4251 17.5314 42.4752 14.4823 40.68L13.7566 40.253L6.23825 42.2089L8.24581 34.938Z" fill="url(#paint1_linear_2477_7921)"/>
<path d="M18.6273 13.7949C18.1799 12.8083 17.7091 12.7884 17.2837 12.7711C16.9353 12.7562 16.537 12.7573 16.1392 12.7573C15.7409 12.7573 15.0939 12.906 14.5469 13.4986C13.9994 14.0917 12.4567 15.525 12.4567 18.4401C12.4567 21.3555 14.5966 24.1728 14.8949 24.5685C15.1936 24.9635 19.0261 31.1372 25.0959 33.5123C30.1404 35.4861 31.1669 35.0935 32.2617 34.9946C33.3567 34.8959 35.795 33.5616 36.2924 32.178C36.7902 30.7946 36.7902 29.6087 36.641 29.3609C36.4917 29.114 36.0935 28.9657 35.4963 28.6695C34.8989 28.3732 31.963 26.9397 31.4157 26.7419C30.8682 26.5443 30.4702 26.4457 30.0719 27.039C29.6737 27.6314 28.5301 28.9657 28.1815 29.3609C27.8334 29.757 27.4848 29.8063 26.8878 29.5099C26.2902 29.2126 24.367 28.5877 22.0854 26.5692C20.3101 24.9986 19.1116 23.0591 18.7632 22.4658C18.4149 21.8734 18.7259 21.5523 19.0254 21.2571C19.2937 20.9916 19.6227 20.5652 19.9216 20.2193C20.2194 19.8733 20.3187 19.6264 20.5179 19.2312C20.7172 18.8357 20.6174 18.4896 20.4684 18.1933C20.3187 17.8969 19.1583 14.9665 18.6273 13.7949Z" fill="white"/>
</g>
<defs>
<linearGradient id="paint0_linear_2477_7921" x1="2318.2" y1="4619.34" x2="2318.2" y2="0.828369" gradientUnits="userSpaceOnUse">
<stop stop-color="#1FAF38"/>
<stop offset="1" stop-color="#60D669"/>
</linearGradient>
<linearGradient id="paint1_linear_2477_7921" x1="2400.5" y1="4784.13" x2="2400.5" y2="0" gradientUnits="userSpaceOnUse">
<stop stop-color="#F9F9F9"/>
<stop offset="1" stop-color="white"/>
</linearGradient>
<clipPath id="clip0_2477_7921">
<rect width="48" height="48" fill="white" transform="translate(0.5)"/>
</clipPath>
</defs>
</svg>
